<svg xmlns="http://www.w3.org/2000/svg" viewBox="0 0 400 120" width="400" height="120">
  <defs>
    <linearGradient id="grad" x1="0%" y1="0%" x2="100%" y2="100%">
      <stop offset="0%" stop-color="#2563eb"/>
      <stop offset="100%" stop-color="#7c3aed"/>
    </linearGradient>
    <linearGradient id="grad-hl" x1="0%" y1="0%" x2="100%" y2="100%">
      <stop offset="0%" stop-color="#3b82f6"/>
      <stop offset="100%" stop-color="#a855f7"/>
    </linearGradient>
  </defs>
  <style>
    .title { fill: #1e293b; font-family: system-ui, -apple-system, sans-serif; font-weight: 700; font-size: 28px; }
    .sub { fill: #64748b; font-family: system-ui, sans-serif; font-weight: 400; font-size: 14px; }
    .doc-bg { fill: url(#grad); }
    .doc-accent { fill: url(#grad-hl); }
    @media (prefers-color-scheme: dark) {
      .title { fill: #f1f5f9; }
      .sub { fill: #94a3b8; }
    }
  </style>
  <rect x="14" y="10" width="80" height="100" rx="10" ry="10" class="doc-bg" opacity="0.9"/>
  <rect x="14" y="10" width="80" height="100" rx="10" ry="10" class="doc-accent" opacity="0.15"/>
  <path d="M 58 10 L 58 40 L 94 40 Z" fill="#fff" opacity="0.3"/>
  <rect x="28" y="28" width="52" height="4" rx="2" fill="#fff" opacity="0.8"/>
  <rect x="28" y="40" width="52" height="4" rx="2" fill="#fff" opacity="0.5"/>
  <rect x="28" y="52" width="40" height="4" rx="2" fill="#fff" opacity="0.5"/>
  <rect x="28" y="64" width="52" height="4" rx="2" fill="#fff" opacity="0.5"/>
  <rect x="28" y="76" width="30" height="4" rx="2" fill="#fff" opacity="0.5"/>
  <circle cx="54" cy="95" r="12" fill="none" stroke="#fff" stroke-width="2.5" opacity="0.7"/>
  <circle cx="54" cy="95" r="5" fill="#fff" opacity="0.4"/>
  <text x="120" y="55" class="title">liteparse</text>
  <text x="120" y="80" class="title" fill="#6366f1">paddle</text>
  <text x="120" y="98" class="sub">document parsing server</text>
</svg>
